<svg width="865" height="220" viewBox="0 0 865 220" fill="none" xmlns="http://www.w3.org/2000/svg">
<rect width="220" height="220" rx="35" fill="#F36E20"/>
<path d="M0 177.5L95 123.5L41.5 220H0V177.5Z" fill="white"/>
<path d="M132 220H101L138 81L0 117.5V87L179.5 39L132 220Z" fill="white"/>
<path d="M300.4 59.2C313.467 59.2 323.867 63.4667 331.6 72C339.467 80.4 343.4 92 343.4 106.8V172H309.4V111.4C309.4 103.933 307.467 98.1333 303.6 94C299.733 89.8667 294.533 87.8 288 87.8C281.467 87.8 276.267 89.8667 272.4 94C268.533 98.1333 266.6 103.933 266.6 111.4V172H232.4V60.4H266.6V75.2C270.067 70.2667 274.733 66.4 280.6 63.6C286.467 60.6667 293.067 59.2 300.4 59.2ZM466.366 114.4C466.366 117.6 466.166 120.933 465.766 124.4H388.366C388.899 131.333 391.099 136.667 394.966 140.4C398.966 144 403.832 145.8 409.566 145.8C418.099 145.8 424.032 142.2 427.366 135H463.766C461.899 142.333 458.499 148.933 453.566 154.8C448.766 160.667 442.699 165.267 435.366 168.6C428.032 171.933 419.832 173.6 410.766 173.6C399.832 173.6 390.099 171.267 381.566 166.6C373.032 161.933 366.366 155.267 361.566 146.6C356.766 137.933 354.366 127.8 354.366 116.2C354.366 104.6 356.699 94.4667 361.366 85.8C366.166 77.1333 372.832 70.4667 381.366 65.8C389.899 61.1333 399.699 58.8 410.766 58.8C421.566 58.8 431.166 61.0667 439.566 65.6C447.966 70.1333 454.499 76.6 459.166 85C463.966 93.4 466.366 103.2 466.366 114.4ZM431.366 105.4C431.366 99.5333 429.366 94.8667 425.366 91.4C421.366 87.9333 416.366 86.2 410.366 86.2C404.632 86.2 399.766 87.8667 395.766 91.2C391.899 94.5333 389.499 99.2667 388.566 105.4H431.366ZM544.408 172L523.008 141L505.008 172H468.008L504.808 115L467.008 60.4H505.408L526.808 91.2L544.808 60.4H581.808L544.408 116.6L582.808 172H544.408ZM600.586 42.2C597.786 42.2 595.386 41.2 593.386 39.2C591.386 37.2 590.386 34.7333 590.386 31.8C590.386 28.8667 591.386 26.4667 593.386 24.6C595.386 22.6 597.786 21.6 600.586 21.6C603.386 21.6 605.786 22.6 607.786 24.6C609.786 26.4667 610.786 28.8667 610.786 31.8C610.786 34.7333 609.786 37.2 607.786 39.2C605.786 41.2 603.386 42.2 600.586 42.2ZM607.586 62.8V172H593.586V62.8H607.586ZM727.889 62.8V172H713.889V152.8C710.689 159.6 705.756 164.8 699.089 168.4C692.422 172 684.956 173.8 676.689 173.8C663.622 173.8 652.956 169.8 644.689 161.8C636.422 153.667 632.289 141.933 632.289 126.6V62.8H646.089V125C646.089 136.867 649.022 145.933 654.889 152.2C660.889 158.467 669.022 161.6 679.289 161.6C689.822 161.6 698.222 158.267 704.489 151.6C710.756 144.933 713.889 135.133 713.889 122.2V62.8H727.889ZM805.052 60.8C818.118 60.8 828.785 64.8667 837.052 73C845.318 81 849.452 92.6667 849.452 108V172H835.652V109.6C835.652 97.7333 832.652 88.6667 826.652 82.4C820.785 76.1333 812.718 73 802.452 73C791.918 73 783.518 76.3333 777.252 83C770.985 89.6667 767.852 99.4667 767.852 112.4V172H753.852V62.8H767.852V81.4C771.318 74.7333 776.318 69.6667 782.852 66.2C789.385 62.6 796.785 60.8 805.052 60.8Z" fill="#393939"/>
</svg>
