<svg width="200" height="200" viewBox="0 0 200 200" fill="none" xmlns="http://www.w3.org/2000/svg">
<g clip-path="url(#clip0_290_2)">
<path d="M200 0H0V200H200V0Z" fill="#DEE2E6"/>
<path d="M99.5001 112.857C117.758 112.857 133.167 115.824 133.167 127.271C133.167 138.722 117.657 141.583 99.5001 141.583C81.246 141.583 65.8335 138.616 65.8335 127.17C65.8335 115.719 81.3428 112.857 99.5001 112.857ZM99.5001 57.417C111.869 57.417 121.779 67.3235 121.779 79.6835C121.779 92.0435 111.869 101.954 99.5001 101.954C87.1356 101.954 77.2213 92.0435 77.2213 79.6835C77.2213 67.3235 87.1356 57.417 99.5001 57.417Z" fill="#6C757D"/>
</g>
<defs>
<clipPath id="clip0_290_2">
<rect width="200" height="200" fill="white"/>
</clipPath>
</defs>
</svg>
